<svg width="46" height="42" viewBox="0 0 46 42" fill="none" xmlns="http://www.w3.org/2000/svg">
<path d="M21.4016 36.4672C21.7885 36.8838 21.8081 37.7756 21.4731 38.2217C20.9295 38.9457 19.8954 39.0447 19.2745 38.3562C19.2264 38.3027 18.9962 37.9539 18.9866 37.9031C18.9263 37.5882 18.9633 37.0002 19.1227 36.7181C19.5831 35.9009 20.7718 35.7887 21.4016 36.4672ZM20.1372 36.2513C19.0883 36.4006 19.3513 38.6377 20.3283 38.6155C21.5435 38.588 21.4905 36.0581 20.1372 36.2513Z" fill="#102D4B"/>
<path d="M13.8783 36.1311C13.9005 36.1364 14.2239 36.338 14.271 36.3735C14.9013 36.8535 14.9198 37.9168 14.2869 38.4063C14.136 38.5233 13.6814 38.7239 13.5078 38.7239H12.0524L12.055 38.5688C12.2217 38.572 12.3768 38.419 12.4117 38.2629C12.4694 38.0062 12.4525 36.9816 12.4255 36.6836C12.4165 36.5809 12.3847 36.401 12.3202 36.3258C12.2339 36.2258 12.01 36.3116 12.0518 36.1306H13.8777L13.8783 36.1311ZM13.9952 38.2333C14.0852 38.1174 14.2106 37.7421 14.2244 37.5886C14.298 36.7424 13.7825 36.1083 12.896 36.3126L12.8536 38.5048C13.1685 38.6657 13.7872 38.5006 13.9952 38.2328V38.2333Z" fill="#102D4B"/>
<path d="M31.8994 36.8723L31.7369 36.8395C31.5633 36.1715 30.7122 35.9995 30.3206 36.5896C30.0597 36.9829 30.0777 37.8006 30.3444 38.1891C30.5995 38.5601 31.1367 38.7215 31.4987 38.4029C31.6279 38.2891 31.676 37.9932 31.8994 38.0366C31.8729 38.2102 31.9782 38.5087 31.8115 38.6098C31.6448 38.7109 31.0758 38.8559 30.8705 38.8268C29.7824 38.6707 29.1446 37.5201 29.8353 36.5812C30.3158 35.9281 31.1388 35.9561 31.8496 36.1546L31.8988 36.8728L31.8994 36.8723Z" fill="#102D4B"/>
<path d="M25.1778 36.8721C24.9608 36.9223 24.9619 36.6667 24.8598 36.5286C24.71 36.3253 24.5067 36.2333 24.2516 36.2333C22.9682 36.2333 23.1968 38.8113 24.4512 38.5535C24.8296 38.4757 24.8529 38.0708 25.1773 38.037C25.1593 38.2217 25.2519 38.4641 25.0693 38.59C24.8661 38.7303 24.2982 38.8652 24.0521 38.8181C22.9402 38.6043 22.4231 37.3156 23.218 36.4741C23.7499 35.9109 24.43 35.9676 25.1281 36.1544L25.1773 36.8726L25.1778 36.8721Z" fill="#102D4B"/>
<path d="M34.969 38.7245C34.9558 38.5652 35.1326 38.5858 35.2284 38.481C35.4215 38.2688 35.72 37.3601 35.8423 37.0309C35.9254 36.8075 36.0799 36.0475 36.3176 36.0285C36.3827 36.0232 36.4642 36.0639 36.507 36.1163C36.6018 36.2338 36.9146 37.1193 37.0072 37.3484C37.1183 37.6247 37.2919 38.3149 37.5057 38.4911C37.5714 38.5451 37.6349 38.5662 37.7185 38.5694L37.7212 38.7245H36.6626C36.6394 38.5848 36.7754 38.579 36.8659 38.5583C36.9146 38.2932 36.8484 38.056 36.7045 37.8364L35.7306 37.8724C35.5951 38.1794 35.3707 38.5546 35.8428 38.6186L35.7894 38.7245H34.969ZM36.6097 37.6131C36.5182 37.2807 36.4118 36.9467 36.2128 36.6615C36.1434 36.6615 35.8545 37.4675 35.8688 37.6131H36.6097Z" fill="#102D4B"/>
<path d="M8.34758 38.7247C8.32746 38.5495 8.53652 38.5722 8.63284 38.5072C8.78844 38.4013 9.34628 36.7786 9.48547 36.4489C9.57915 36.2266 9.54422 35.8905 9.93904 36.1133L10.7345 38.2161C10.7954 38.3013 10.8457 38.4399 10.9171 38.5098C10.997 38.5881 11.1764 38.568 11.1521 38.7247H10.12C10.11 38.7247 10.0253 38.6389 10.0407 38.6194L10.2984 38.5595C10.3619 38.2759 10.2508 38.0726 10.0941 37.8503L9.13458 37.8551L8.97792 38.4802C8.99432 38.5585 9.34522 38.5357 9.2997 38.7241H8.34705L8.34758 38.7247ZM10.0412 37.6127C9.96498 37.2576 9.80461 36.9321 9.64425 36.6087C9.56856 36.7405 9.23566 37.5471 9.30023 37.6132H10.0412V37.6127Z" fill="#102D4B"/>
<path d="M26.104 38.7246C26.085 38.7198 26.0114 38.6372 26.0246 38.6192L26.4364 38.3689L27.2499 36.0868C27.4743 35.9555 27.6129 36.1323 27.7045 36.3297C27.9707 36.9039 28.1448 37.7502 28.4486 38.2847C28.5677 38.4943 28.7932 38.5144 28.7768 38.724H27.7976L27.7442 38.6182L28.0136 38.5134C28.0713 38.2583 27.876 38.0312 27.7452 37.8243H26.8191L26.6566 38.4319L26.6841 38.5144C26.7338 38.5843 26.9598 38.5584 26.9249 38.7235C26.6952 38.6859 26.3094 38.7754 26.1046 38.7235L26.104 38.7246ZM26.981 37.6099L27.6098 37.6454L27.7183 37.5856C27.6394 37.2501 27.3954 36.9563 27.4002 36.6075C27.2181 36.6419 26.9323 37.5369 26.981 37.6099Z" fill="#102D4B"/>
<path d="M16.551 36.1313C16.5986 36.2943 16.351 36.262 16.3351 36.3218C16.2986 36.5796 16.4584 36.7812 16.5245 36.9781C16.5907 37.175 16.8077 38.0387 17.0003 38.0371C17.1036 37.7884 17.7413 36.4557 17.5434 36.3033C17.5312 36.2938 17.1443 36.1313 17.4243 36.1313H18.1917C18.2086 36.2901 18.0202 36.2827 17.9234 36.3657C17.7281 36.5346 17.2734 38.0371 17.1057 38.406C17.003 38.632 16.8384 39.0051 16.6452 38.6034C16.3308 37.9498 16.126 37.0331 15.7497 36.4293C15.6693 36.3001 15.5909 36.2774 15.439 36.2895V36.1313H16.551Z" fill="#102D4B"/>
<path d="M34.1222 36.1313V36.2901C33.6597 36.2504 33.8555 36.7526 33.847 37.0051C33.8338 37.3893 33.766 37.8836 33.8052 38.27C33.837 38.5833 34.1212 38.4918 34.1752 38.7252H33.0637L33.1008 38.5664C33.1955 38.5606 33.3151 38.4933 33.3538 38.4065C33.404 38.2943 33.4088 36.7278 33.3776 36.5325C33.3299 36.2313 33.1119 36.3642 33.0637 36.1318H34.1222V36.1313Z" fill="#102D4B"/>
<path d="M42.9608 37.1368H39.0443V37.4014H42.9608V37.1368Z" fill="#CBA952"/>
<path d="M6.97152 37.4015H3.10796L3.0778 37.1887C3.11696 37.1331 3.17888 37.14 3.23763 37.1342C4.38876 37.022 5.72089 37.2236 6.89213 37.1363C7.08425 37.1659 6.96887 37.266 6.97152 37.4015Z" fill="#CBA952"/>
<path d="M20.0705 26.0225C20.7623 26.0749 21.562 26.4099 21.87 27.081C22.3929 28.2189 21.7202 29.3648 20.5712 29.6992C20.3976 29.9411 20.5908 29.9639 20.6432 30.0565C20.9645 30.6276 22.0939 32.4969 22.6184 32.7361C22.7904 32.8144 22.9926 32.815 23.1619 32.9081L23.1053 33.16C22.6517 33.1336 22.0997 33.222 21.6567 33.169C21.0449 33.0955 20.5781 31.9973 20.2039 31.594L19.3047 30.0173L18.5585 30.0157L18.5087 30.1248C18.604 30.6773 18.3542 32.1158 18.5733 32.5498C18.7374 32.8753 19.4487 32.7779 19.3555 33.141C19.3248 33.2611 19.2301 33.168 19.2237 33.168H16.4981L16.4674 32.9536C16.7839 32.7562 17.1919 32.8732 17.3438 32.4524C17.2946 31.0986 17.4597 29.7691 17.3428 28.4301C17.3391 28.2279 17.4047 27.9929 17.401 27.7987C17.3962 27.5552 17.3724 26.9238 17.3041 26.7264C17.1988 26.4226 16.7892 26.3448 16.4986 26.3411V26.0231C17.6624 26.0882 18.9189 25.9352 20.0716 26.0231L20.0705 26.0225ZM18.5092 29.5685C19.2015 29.6119 19.8255 29.623 20.3622 29.1192C20.9115 28.6037 20.929 27.4727 20.4675 26.8958C19.9393 26.2353 19.2518 26.4676 18.5092 26.4459V29.5685Z" fill="#102D4B"/>
<path d="M3.00212 33.1674L3 32.9308C3.73513 32.7128 3.86057 32.7196 3.88174 31.9152C3.91085 30.8249 3.85316 29.7188 3.84363 28.6428C3.83887 28.1083 3.92514 27.2937 3.84628 26.7936C3.80817 26.5517 3.58694 26.4363 3.38424 26.3559C3.27521 26.3125 2.97883 26.3792 3.02646 26.1246C3.06616 25.9134 3.23922 26.0272 3.39641 26.0262C4.42316 26.0193 6.68996 25.869 7.54682 26.2157C9.26213 26.91 8.66301 29.0509 7.02497 29.3308C7.29966 29.4669 7.64738 29.5134 7.91941 29.6537C9.35104 30.3893 9.25154 32.2862 7.80245 32.9139C7.72253 32.9483 7.0906 33.1679 7.05091 33.1679H3.00212V33.1674ZM5.25991 26.412C5.15142 26.4162 4.9593 26.449 4.95824 26.5771L5.03816 29.2001C6.28666 29.4584 7.58969 28.9815 7.39069 27.4822C7.33829 27.0889 6.9387 26.5724 6.55023 26.4702C6.35388 26.4184 5.49914 26.4019 5.25991 26.412ZM6.25703 29.6214C5.90296 29.5732 5.45838 29.6563 5.09267 29.6214C4.88838 29.7685 5.00375 30.0654 5.00111 30.2687C4.99582 30.6799 5.00111 31.0345 5.0154 31.4447C5.0318 31.9152 4.87144 32.7302 5.56582 32.8001C6.59363 32.9033 7.48807 32.5863 7.7003 31.4875C7.86596 30.6286 7.0996 29.7347 6.25703 29.6209V29.6214Z" fill="#102D4B"/>
<path d="M41.5657 26.5179C43.7922 28.2205 43.3778 32.0941 40.6612 33.1171C37.2189 34.4133 34.416 31.1436 35.9122 27.8918C36.8675 25.8156 39.753 25.1318 41.5657 26.5179ZM40.6543 32.4487C42.8708 30.6207 41.4704 25.1217 38.2541 26.4761C36.2223 27.3313 36.379 31.9766 38.46 32.7726C39.2279 33.0663 40.0186 32.9732 40.6548 32.4487H40.6543Z" fill="#102D4B"/>
<path d="M34.5721 29.8859L34.6467 29.9711L34.6293 30.1548C33.3966 30.277 34.1164 31.7801 33.9365 32.5841C33.8671 32.7391 33.0023 33.0784 32.7996 33.1408C30.3741 33.8908 27.8178 32.8482 27.5325 30.1516C27.3012 27.9631 28.7461 25.9282 31.024 25.8075C31.9862 25.7567 33.0907 25.9223 33.8465 26.5299L33.8084 28.0626L33.3924 28.0214C33.2971 27.3714 32.851 26.7067 32.2196 26.4691C30.7604 25.9208 29.4161 26.7575 29.0033 28.1791C28.3486 30.4332 29.4209 33.6463 32.3 32.746C32.4514 32.6989 32.571 32.5745 32.7499 32.5539C32.6906 32.2109 32.8451 30.5983 32.68 30.4274C32.5308 30.2728 32.1619 30.2421 31.9586 30.1971L31.9528 29.8849H34.5726L34.5721 29.8859Z" fill="#102D4B"/>
<path d="M15.0691 26.0225L15.2057 27.6611C15.2194 27.8098 14.9458 27.7934 14.8521 27.7437C14.742 27.4134 14.6383 26.935 14.3551 26.7095C14.3186 26.6804 13.9053 26.4454 13.8783 26.4454H11.9465V29.1181L12.0259 29.1975H13.4549C13.4745 29.1975 13.782 29.0631 13.8127 29.0403C14.0228 28.8868 14.1053 28.5471 14.063 28.2973H14.4335L14.38 30.573L14.0704 30.5132C14.0741 30.2449 14.0672 30.0385 13.8804 29.83C13.8523 29.7982 13.6301 29.6209 13.6131 29.6209H11.946V32.3466C11.946 32.5038 12.1836 32.7552 12.3551 32.7821C13.3601 32.9399 14.7976 32.7689 15.1787 31.6628C15.2713 31.3934 15.1453 31.079 15.6164 31.2166C15.7682 31.2611 15.6222 31.4045 15.6095 31.5119C15.5587 31.9449 15.4862 32.2577 15.3994 32.6774C15.3628 32.8531 15.4285 33.0537 15.2808 33.1971C15.2395 33.2177 15.2115 33.1669 15.2004 33.1669H9.96075L9.90782 32.9536C10.3619 32.7086 10.7229 32.8869 10.7832 32.2428C10.6737 30.582 10.9235 28.7482 10.7806 27.108C10.7319 26.5523 10.5075 26.3374 9.93852 26.3364L9.93481 25.9696C9.98933 25.949 10.0475 26.0225 10.0671 26.0225H15.0686H15.0691Z" fill="#102D4B"/>
<path d="M24.0135 33.1674L24.0188 32.9081C24.4136 32.8171 24.8021 32.7843 24.8317 32.2947L24.8063 26.791C24.6872 26.4681 24.3448 26.3094 24.013 26.3401L24.0209 26.0564L24.0902 25.9828L26.7645 25.9691L26.7958 26.2908C26.7317 26.3792 26.094 26.3162 26.0273 26.7402L26.0516 32.5313C26.1977 32.8795 26.8826 32.7234 26.818 33.1674H24.013H24.0135Z" fill="#102D4B"/>
<path d="M22.2691 9.37539C22.2744 9.77339 22.2384 10.1809 22.267 10.5683H24.5692C24.9884 10.4826 25.8516 10.0004 26.1575 9.66912C27.9474 7.731 26.8995 4.74177 24.1479 4.58564C21.2233 4.41946 18.1419 4.71425 15.2009 4.58829L15.122 4.5613C14.895 4.22046 14.5118 3.9209 14.1524 3.73143C13.729 3.50808 13.5597 3.70814 13.6396 3L24.3035 3.00106C26.9112 3.10056 29.5982 4.63857 29.4113 7.57751C29.3404 8.68895 28.6931 9.72258 27.7638 10.3228C27.4012 10.5572 26.9683 10.6758 26.6079 10.9123C26.8132 11.1399 27.1869 11.0907 27.415 11.1632C29.4584 11.8115 31.1198 13.2744 31.3167 15.5179C31.6115 18.8808 29.4844 20.7231 26.3523 21.4397C26.2824 21.4556 26.2644 21.4995 26.0209 21.5239H20.9703L20.8909 21.4445V7.10171L20.9703 7.02233H23.1402L23.2191 7.15358C22.9148 7.45261 22.3273 7.6098 22.2818 8.06866M22.214 11.8121V13.1881L22.2998 13.1913C22.6189 13.186 23.2688 12.9309 23.562 12.8955C23.9129 12.8526 24.2564 12.9314 24.5946 13.0024C24.6703 12.3773 25.5256 12.5144 25.5197 12.9838C26.0516 12.77 26.5708 12.9791 27.0821 13.1363C27.3404 13.2157 27.541 13.4221 27.8246 13.2405C27.4034 12.6552 26.628 12.3561 25.9601 12.1413C25.7685 12.0799 25.8188 12.1349 25.6208 12.0142C25.56 11.9772 25.4626 11.7073 24.9714 11.7348C24.7089 11.7496 24.5502 11.8602 24.439 11.8555C24.2517 11.8481 23.8716 11.7427 23.6181 11.73C23.3186 11.7152 22.6073 11.6845 22.3458 11.7322C22.2865 11.7427 22.2474 11.7597 22.214 11.8121ZM27.8617 18.0615C27.7299 18.0588 27.3817 18.0922 27.1229 17.9641C26.9773 17.8921 26.3242 17.4608 26.3025 17.256L27.6129 13.6909C26.8154 13.6073 25.8558 12.8012 25.2567 13.8248L25.2366 18.604C25.2414 18.7199 25.3356 18.7247 25.3588 18.8035C25.3705 18.8427 25.3832 19.0798 25.3848 19.1692C25.3927 19.5635 26.0262 19.6736 26.2824 19.7313L26.2898 19.9361H23.6398C23.6398 19.9361 23.6287 19.7948 23.6499 19.7355C24.2135 19.5953 24.4628 19.4328 24.5417 19.1661C24.5687 19.0734 24.565 18.8347 24.5766 18.7982C24.6036 18.7135 24.7005 18.7183 24.7005 18.614L24.6899 13.8328C24.5951 13.0024 23.4916 13.1839 23.0555 13.4702C22.9624 13.5311 22.7861 13.5528 22.6872 13.5766C22.5713 13.6047 22.2146 13.6216 22.2146 13.6216C22.2146 13.7364 22.3183 14.0079 22.3665 14.1328C22.4966 14.4695 22.6369 14.7664 22.7687 15.0924L22.8645 15.3443L23.6494 17.211C23.6499 17.4142 23.2334 17.872 23.0608 17.9509C22.8745 18.0361 22.3754 17.907 22.2908 18.0276L22.2675 20.4124H25.1519C25.6573 20.4124 26.0591 20.2187 26.1855 20.1759C27.1827 19.843 28.1343 18.9776 28.6116 18.0557M28.9742 16.6346L28.9885 15.7815C29.0033 15.4703 28.8106 14.8923 28.763 14.7367C28.7101 14.5621 28.3094 13.6793 28.1946 13.6078L27.8839 13.6978C27.8458 13.7576 28.1665 14.697 28.2211 14.8553C28.3804 15.3163 28.5921 15.7513 28.7757 16.2028M27.8241 14.1672L27.7543 13.9799C27.406 14.9394 26.8847 16.2213 26.5544 17.1835L28.8826 17.2364L27.8241 14.1672ZM22.1622 14.2207L21.0745 17.0316V17.2009L23.4308 17.2369C23.4223 17.1475 23.0158 16.2075 22.9523 16.0487" fill="#102D4B"/>
<path d="M17.6095 7.02226L17.5566 21.5238H14.8045L14.851 20.8686C15.3216 20.7813 16.0022 20.4394 16.1848 19.9662C16.2059 19.9117 16.324 19.6021 16.3393 19.2739V7.10112L16.4187 7.02173H17.6095V7.02226Z" fill="#102D4B"/>
<path d="M19.9366 13.1378C19.9229 15.8772 19.9483 18.6436 19.9409 21.3936L19.8858 21.554C19.8483 21.5857 19.8192 21.5233 19.8059 21.5233H18.7474L18.8003 7.02173H19.9118C19.9875 7.0683 19.9848 7.12705 19.9938 7.20432" fill="#102D4B"/>
<path d="M24.2781 5.27563C24.1876 5.82923 23.7526 6.24787 23.1889 6.32991C21.0947 6.18013 18.685 6.54373 16.6278 6.33732C16.4923 6.32356 16.1033 6.23623 15.9773 6.19389C15.5978 6.06687 15.4295 5.63023 15.3337 5.27563H24.2781Z" fill="#102D4B"/>
</svg>
